<svg width="205" height="48" viewBox="0 0 205 48" fill="none" xmlns="http://www.w3.org/2000/svg">
<path d="M18.9649 6.29688C13.6601 6.29688 8.82921 8.17543 5.36456 11.5846C1.90417 14.9895 0 19.7179 0 24.901C0 30.0841 1.90631 34.8125 5.36456 38.2174C8.82921 41.6265 13.6601 43.5051 18.9649 43.5051C24.2697 43.5051 29.1005 41.6265 32.5652 38.2174C36.0256 34.8125 37.9297 30.0841 37.9297 24.901C37.9297 19.7179 36.0234 14.9895 32.5652 11.5846C29.0984 8.17329 24.2697 6.29688 18.9649 6.29688ZM18.9649 36.2812C12.0484 36.2812 7.40322 31.7065 7.40322 24.901C7.40322 18.0933 12.0505 13.5208 18.9649 13.5208C25.8792 13.5208 30.5265 18.0955 30.5265 24.901C30.5265 31.7065 25.8792 36.2812 18.9649 36.2812Z" fill="white"/>
<path d="M58.3303 6.29688C47.4517 6.29688 40.6953 13.1472 40.6953 24.1752V42.7174H48.0366V24.1752C48.0366 17.3035 51.6913 13.5186 58.3303 13.5186C64.9671 13.5186 68.6239 17.3035 68.6239 24.1752V42.7174H75.9652V24.1752C75.9652 13.1472 69.2088 6.29688 58.3303 6.29688Z" fill="white"/>
<path d="M102.877 6.29098e-05C109.465 0.0427574 115.036 2.49983 119.647 7.16206C121.291 8.82287 121.445 10.5029 120.243 11.9545C118.866 13.6175 116.958 13.5833 115.043 11.7282C112.74 9.49958 110.073 7.94763 106.976 7.17273C100.085 5.45214 92.8546 8.03089 88.6833 13.6538C84.7021 19.0183 84.5334 26.8335 87.8828 32.8833C93.083 42.2761 106.7 44.2144 114.507 36.5636C115.267 35.8186 116.05 35.0479 117.161 34.8857C118.73 34.6573 119.899 35.3831 120.659 36.6874C121.552 38.2201 120.875 39.6248 119.803 40.6623C114.138 46.1442 107.435 48.9322 99.4808 47.7196C87.1442 45.8411 78.6566 35.8207 78.7547 23.4735C78.8551 10.5926 89.7763 -0.0298232 102.877 6.29098e-05Z" fill="white"/>
<path d="M123.012 26.5617H113.127C111.735 26.5617 110.605 25.4325 110.605 24.0406C110.605 22.6488 111.735 21.5195 113.127 21.5195H123.012C124.404 21.5195 125.534 22.6488 125.534 24.0406C125.531 25.4325 124.404 26.5617 123.012 26.5617Z" fill="#29A1FF"/>
<path d="M197.081 24.1713V25.1575H204.422V24.1713C204.422 13.1433 197.666 6.29297 186.787 6.29297C175.909 6.29297 169.152 13.1433 169.152 24.1713V42.7135H176.494V24.1713C176.494 17.2996 180.148 13.5147 186.787 13.5147C193.424 13.5169 197.081 17.2996 197.081 24.1713Z" fill="white"/>
<path d="M166.363 24.8971C166.363 19.714 164.457 14.9856 160.999 11.5807C157.534 8.17152 152.703 6.29297 147.398 6.29297C142.094 6.29297 137.263 8.17152 133.798 11.5807C130.338 14.9856 128.434 19.714 128.434 24.8971C128.434 30.0802 130.34 34.8086 133.798 38.2135C137.263 41.6226 142.094 43.5012 147.398 43.5012C152.007 43.5012 156.258 42.0816 159.564 39.4751V43.5012H166.363V25.3283L166.353 25.3454C166.357 25.1938 166.363 25.0465 166.363 24.8971ZM147.398 36.2794C140.482 36.2794 135.837 31.7047 135.837 24.8992C135.837 18.0916 140.484 13.519 147.398 13.519C154.315 13.519 158.96 18.0937 158.96 24.8992C158.96 31.7047 154.315 36.2794 147.398 36.2794Z" fill="white"/>
</svg>
